<svg xmlns="http://www.w3.org/2000/svg" xmlns:xlink="http://www.w3.org/1999/xlink" width="500" zoomAndPan="magnify" viewBox="0 0 375 374.999991" height="500" preserveAspectRatio="xMidYMid meet" version="1.0"><defs><g/><clipPath id="a0bba8b152"><path d="M 307.53125 199.242188 L 320.667969 199.242188 L 320.667969 200.878906 L 307.53125 200.878906 Z M 307.53125 199.242188 " clip-rule="nonzero"/></clipPath><clipPath id="e93cbcbd1a"><path d="M 327.066406 169.722656 L 328.71875 169.722656 L 328.71875 173.066406 L 327.066406 173.066406 Z M 327.066406 169.722656 " clip-rule="nonzero"/></clipPath><clipPath id="c8ca04a1d4"><path d="M 306 164.878906 L 323 164.878906 L 323 167 L 306 167 Z M 306 164.878906 " clip-rule="nonzero"/></clipPath><clipPath id="cc14f5164c"><path d="M 299.503906 169 L 302 169 L 302 174 L 299.503906 174 Z M 299.503906 169 " clip-rule="nonzero"/></clipPath></defs><path fill="#ffffff" d="M 324.164062 185.664062 L 320 185.664062 L 320 178.558594 L 324.164062 178.558594 L 324.164062 185.664062 " fill-opacity="1" fill-rule="nonzero"/><path fill="#ffffff" d="M 309.261719 192.699219 L 309.261719 191.0625 L 307.640625 191.0625 L 307.640625 187.789062 L 320.609375 187.789062 L 320.613281 189.425781 L 315.746094 189.425781 L 315.75 191.0625 L 310.882812 191.0625 L 310.886719 192.699219 L 309.261719 192.699219 " fill-opacity="1" fill-rule="nonzero"/><path fill="#ffffff" d="M 309.261719 192.699219 L 309.261719 191.0625 L 307.640625 191.0625 L 307.640625 187.789062 L 320.609375 187.789062 L 320.609375 189.425781 L 315.746094 189.425781 L 315.746094 191.0625 L 310.882812 191.0625 L 310.882812 192.699219 L 309.261719 192.699219 " fill-opacity="1" fill-rule="nonzero"/><path fill="#ffffff" d="M 323.851562 182.882812 L 323.851562 177.96875 L 325.472656 177.96875 L 325.476562 182.882812 L 323.851562 182.882812 " fill-opacity="1" fill-rule="nonzero"/><path fill="#ffffff" d="M 323.851562 177.96875 L 325.472656 177.96875 L 325.472656 182.878906 L 323.851562 182.878906 L 323.851562 177.96875 " fill-opacity="1" fill-rule="nonzero"/><path fill="#ffffff" d="M 307.640625 199.246094 L 307.640625 197.609375 L 306.019531 197.609375 L 306.019531 195.972656 L 304.398438 195.972656 L 304.398438 191.0625 L 306.019531 191.0625 L 306.019531 192.699219 L 307.640625 192.699219 L 307.644531 194.335938 L 320.609375 194.332031 L 320.609375 192.699219 L 323.851562 192.699219 L 323.855469 195.972656 L 322.230469 195.972656 L 322.230469 197.609375 L 320.609375 197.609375 L 320.613281 199.246094 L 307.640625 199.246094 " fill-opacity="1" fill-rule="nonzero"/><path fill="#ffffff" d="M 323.851562 192.699219 L 323.851562 195.972656 L 322.230469 195.972656 L 322.230469 197.609375 L 320.609375 197.609375 L 320.609375 199.246094 L 307.640625 199.246094 L 307.640625 197.609375 L 306.019531 197.609375 L 306.019531 195.972656 L 304.398438 195.972656 L 304.398438 191.0625 L 306.019531 191.0625 L 306.019531 192.699219 L 307.640625 192.699219 L 307.640625 194.335938 L 320.609375 194.335938 L 320.609375 192.699219 L 323.851562 192.699219 " fill-opacity="1" fill-rule="nonzero"/><path fill="#ffffff" d="M 310.882812 184.519531 L 310.882812 182.878906 L 302.777344 182.882812 L 302.777344 176.335938 L 304.398438 176.332031 L 304.398438 174.699219 L 302.777344 174.699219 L 302.777344 173.0625 L 301.15625 173.0625 L 301.15625 171.425781 L 302.777344 171.425781 L 302.777344 168.152344 L 306.019531 168.152344 L 306.019531 166.515625 L 322.230469 166.515625 L 322.230469 168.152344 L 325.472656 168.152344 L 325.476562 169.789062 L 327.097656 169.785156 L 327.097656 173.0625 L 323.851562 173.0625 L 323.855469 174.699219 L 322.230469 174.699219 L 322.230469 176.335938 L 320.609375 176.335938 L 320.613281 177.96875 L 306.019531 177.972656 L 306.019531 179.609375 L 318.992188 179.605469 L 318.992188 184.519531 L 310.882812 184.519531 " fill-opacity="1" fill-rule="nonzero"/><path fill="#ffffff" d="M 327.097656 169.789062 L 327.097656 173.0625 L 323.851562 173.0625 L 323.851562 174.699219 L 322.230469 174.699219 L 322.230469 176.335938 L 320.609375 176.335938 L 320.609375 177.96875 L 306.019531 177.96875 L 306.019531 179.609375 L 318.992188 179.609375 L 318.992188 184.515625 L 310.882812 184.515625 L 310.882812 182.878906 L 302.777344 182.878906 L 302.777344 176.335938 L 304.398438 176.335938 L 304.398438 174.699219 L 302.777344 174.699219 L 302.777344 173.0625 L 301.15625 173.0625 L 301.15625 171.425781 L 302.777344 171.425781 L 302.777344 168.152344 L 306.019531 168.152344 L 306.019531 166.515625 L 322.230469 166.515625 L 322.230469 168.152344 L 325.472656 168.152344 L 325.472656 169.789062 L 327.097656 169.789062 " fill-opacity="1" fill-rule="nonzero"/><g clip-path="url(#a0bba8b152)"><path fill="#000000" d="M 307.640625 200.882812 L 307.640625 199.246094 L 320.609375 199.246094 L 320.613281 200.882812 L 307.640625 200.882812 " fill-opacity="1" fill-rule="nonzero"/><path fill="#000000" d="M 320.609375 199.246094 L 320.609375 200.878906 L 307.640625 200.878906 L 307.640625 199.246094 L 320.609375 199.246094 " fill-opacity="1" fill-rule="nonzero"/></g><g clip-path="url(#e93cbcbd1a)"><path fill="#000000" d="M 327.097656 173.0625 L 327.09375 169.789062 L 328.714844 169.785156 L 328.71875 173.0625 L 327.097656 173.0625 " fill-opacity="1" fill-rule="nonzero"/><path fill="#000000" d="M 328.714844 169.789062 L 328.714844 173.0625 L 327.097656 173.0625 L 327.097656 169.789062 L 328.714844 169.789062 " fill-opacity="1" fill-rule="nonzero"/></g><path fill="#000000" d="M 325.472656 186.152344 L 325.472656 173.0625 L 327.097656 173.0625 L 327.097656 186.152344 L 325.472656 186.152344 " fill-opacity="1" fill-rule="nonzero"/><path fill="#000000" d="M 327.097656 173.0625 L 327.097656 186.152344 L 325.472656 186.152344 L 325.472656 173.0625 L 327.097656 173.0625 " fill-opacity="1" fill-rule="nonzero"/><path fill="#000000" d="M 325.472656 169.789062 L 325.472656 168.152344 L 327.097656 168.152344 L 327.097656 169.789062 L 325.472656 169.789062 " fill-opacity="1" fill-rule="nonzero"/><path fill="#000000" d="M 327.097656 168.152344 L 327.097656 169.789062 L 325.472656 169.789062 L 325.472656 168.152344 L 327.097656 168.152344 " fill-opacity="1" fill-rule="nonzero"/><path fill="#000000" d="M 323.851562 195.972656 L 323.851562 186.152344 L 325.472656 186.152344 L 325.476562 195.972656 L 323.851562 195.972656 " fill-opacity="1" fill-rule="nonzero"/><path fill="#000000" d="M 325.472656 186.152344 L 325.472656 195.972656 L 323.851562 195.972656 L 323.851562 186.152344 L 325.472656 186.152344 " fill-opacity="1" fill-rule="nonzero"/><path fill="#000000" d="M 320.609375 199.246094 L 320.609375 197.609375 L 322.230469 197.605469 L 322.230469 199.246094 L 320.609375 199.246094 " fill-opacity="1" fill-rule="nonzero"/><path fill="#000000" d="M 320.609375 197.609375 L 322.230469 197.609375 L 322.230469 199.246094 L 320.609375 199.246094 L 320.609375 197.609375 " fill-opacity="1" fill-rule="nonzero"/><path fill="#000000" d="M 322.230469 197.609375 L 322.230469 195.972656 L 323.851562 195.96875 L 323.855469 197.609375 L 322.230469 197.609375 " fill-opacity="1" fill-rule="nonzero"/><path fill="#000000" d="M 323.851562 195.972656 L 323.851562 197.609375 L 322.230469 197.609375 L 322.230469 195.972656 L 323.851562 195.972656 " fill-opacity="1" fill-rule="nonzero"/><path fill="#000000" d="M 322.230469 173.0625 L 322.230469 171.425781 L 323.851562 171.425781 L 323.855469 173.0625 L 322.230469 173.0625 " fill-opacity="1" fill-rule="nonzero"/><path fill="#000000" d="M 322.230469 173.0625 L 322.230469 171.425781 L 323.851562 171.425781 L 323.855469 173.0625 L 322.230469 173.0625 " fill-opacity="1" fill-rule="nonzero"/><path fill="#000000" d="M 323.851562 171.425781 L 323.851562 173.0625 L 322.230469 173.0625 L 322.230469 171.425781 L 323.851562 171.425781 " fill-opacity="1" fill-rule="nonzero"/><path fill="#000000" d="M 322.230469 168.152344 L 322.230469 166.515625 L 325.472656 166.515625 L 325.476562 168.152344 L 322.230469 168.152344 " fill-opacity="1" fill-rule="nonzero"/><path fill="#000000" d="M 325.472656 166.515625 L 325.472656 168.152344 L 322.230469 168.152344 L 322.230469 166.515625 L 325.472656 166.515625 " fill-opacity="1" fill-rule="nonzero"/><path fill="#000000" d="M 310.882812 176.335938 L 310.882812 173.0625 L 322.230469 173.0625 L 322.230469 174.699219 L 318.992188 174.699219 L 318.992188 176.335938 L 310.882812 176.335938 " fill-opacity="1" fill-rule="nonzero"/><path fill="#000000" d="M 310.882812 176.335938 L 310.882812 173.0625 L 322.230469 173.0625 L 322.230469 174.699219 L 318.992188 174.699219 L 318.992188 176.335938 L 310.882812 176.335938 " fill-opacity="1" fill-rule="nonzero"/><path fill="#000000" d="M 322.230469 173.0625 L 322.230469 174.699219 L 318.992188 174.699219 L 318.992188 176.335938 L 310.882812 176.335938 L 310.882812 173.0625 L 322.230469 173.0625 " fill-opacity="1" fill-rule="nonzero"/><path fill="#000000" d="M 318.992188 171.425781 L 318.988281 169.789062 L 320.609375 169.785156 L 320.613281 171.425781 L 318.992188 171.425781 " fill-opacity="1" fill-rule="nonzero"/><path fill="#000000" d="M 318.992188 171.425781 L 318.988281 169.789062 L 320.609375 169.785156 L 320.613281 171.425781 L 318.992188 171.425781 " fill-opacity="1" fill-rule="nonzero"/><path fill="#000000" d="M 320.609375 169.789062 L 320.609375 171.425781 L 318.992188 171.425781 L 318.992188 169.789062 L 320.609375 169.789062 " fill-opacity="1" fill-rule="nonzero"/><path fill="#000000" d="M 306.019531 199.246094 L 306.019531 197.609375 L 307.640625 197.605469 L 307.644531 199.246094 L 306.019531 199.246094 " fill-opacity="1" fill-rule="nonzero"/><path fill="#000000" d="M 307.640625 197.609375 L 307.640625 199.246094 L 306.019531 199.246094 L 306.019531 197.609375 L 307.640625 197.609375 " fill-opacity="1" fill-rule="nonzero"/><path fill="#000000" d="M 304.398438 197.609375 L 304.398438 195.972656 L 306.019531 195.96875 L 306.019531 197.609375 L 304.398438 197.609375 " fill-opacity="1" fill-rule="nonzero"/><path fill="#000000" d="M 306.019531 195.972656 L 306.019531 197.609375 L 304.398438 197.609375 L 304.398438 195.972656 L 306.019531 195.972656 " fill-opacity="1" fill-rule="nonzero"/><g clip-path="url(#c8ca04a1d4)"><path fill="#000000" d="M 306.019531 166.519531 L 306.019531 164.878906 L 322.230469 164.878906 L 322.230469 166.519531 L 306.019531 166.519531 " fill-opacity="1" fill-rule="nonzero"/><path fill="#000000" d="M 322.230469 164.878906 L 322.230469 166.515625 L 306.019531 166.515625 L 306.019531 164.878906 L 322.230469 164.878906 " fill-opacity="1" fill-rule="nonzero"/></g><path fill="#000000" d="M 302.777344 195.972656 L 302.777344 186.152344 L 304.398438 186.152344 L 304.398438 195.972656 L 302.777344 195.972656 " fill-opacity="1" fill-rule="nonzero"/><path fill="#000000" d="M 304.398438 186.152344 L 304.398438 195.972656 L 302.777344 195.972656 L 302.777344 186.152344 L 304.398438 186.152344 " fill-opacity="1" fill-rule="nonzero"/><path fill="#070a0e" d="M 307.640625 176.335938 L 307.640625 174.699219 L 310.882812 174.699219 L 310.886719 176.335938 L 307.640625 176.335938 " fill-opacity="1" fill-rule="nonzero"/><path fill="#070a0e" d="M 310.882812 174.699219 L 310.882812 176.335938 L 307.640625 176.335938 L 307.640625 174.699219 L 310.882812 174.699219 " fill-opacity="1" fill-rule="nonzero"/><path fill="#070a0e" d="M 315.746094 173.0625 L 315.746094 171.425781 L 310.882812 171.425781 L 310.882812 169.789062 L 318.992188 169.785156 L 318.992188 171.425781 L 322.230469 171.425781 L 322.230469 173.0625 L 315.746094 173.0625 " fill-opacity="1" fill-rule="nonzero"/><path fill="#070a0e" d="M 315.746094 173.0625 L 315.746094 171.425781 L 310.882812 171.425781 L 310.882812 169.789062 L 318.992188 169.785156 L 318.992188 171.425781 L 322.230469 171.425781 L 322.230469 173.0625 L 315.746094 173.0625 " fill-opacity="1" fill-rule="nonzero"/><path fill="#070a0e" d="M 315.746094 173.0625 L 315.746094 171.425781 L 310.882812 171.425781 L 310.882812 169.789062 L 318.992188 169.789062 L 318.992188 171.425781 L 322.230469 171.425781 L 322.230469 173.0625 L 315.746094 173.0625 " fill-opacity="1" fill-rule="nonzero"/><path fill="#070a0e" d="M 306.019531 171.425781 L 306.019531 169.789062 L 307.640625 169.785156 L 307.644531 171.425781 L 306.019531 171.425781 " fill-opacity="1" fill-rule="nonzero"/><path fill="#070a0e" d="M 307.640625 171.425781 L 306.019531 171.425781 L 306.019531 169.789062 L 307.640625 169.789062 L 307.640625 171.425781 " fill-opacity="1" fill-rule="nonzero"/><path fill="#070a0e" d="M 306.019531 192.699219 L 306.019531 191.0625 L 304.398438 191.0625 L 304.398438 186.152344 L 302.777344 186.152344 L 302.777344 184.515625 L 306.019531 184.515625 L 306.019531 186.152344 L 307.640625 186.152344 L 307.644531 192.699219 L 306.019531 192.699219 " fill-opacity="1" fill-rule="nonzero"/><path fill="#070a0e" d="M 306.019531 186.152344 L 307.640625 186.152344 L 307.640625 192.699219 L 306.019531 192.699219 L 306.019531 191.0625 L 304.398438 191.0625 L 304.398438 186.152344 L 302.777344 186.152344 L 302.777344 184.515625 L 306.019531 184.515625 L 306.019531 186.152344 " fill-opacity="1" fill-rule="nonzero"/><path fill="#070a0e" d="M 318.992188 176.335938 L 318.988281 174.699219 L 320.609375 174.699219 L 320.613281 176.335938 L 318.992188 176.335938 " fill-opacity="1" fill-rule="nonzero"/><path fill="#070a0e" d="M 318.992188 174.699219 L 320.609375 174.699219 L 320.609375 176.335938 L 318.992188 176.335938 L 318.992188 174.699219 " fill-opacity="1" fill-rule="nonzero"/><path fill="#070a0e" d="M 317.367188 192.699219 L 317.367188 191.0625 L 318.992188 191.0625 L 318.988281 189.425781 L 320.609375 189.425781 L 320.609375 187.789062 L 323.851562 187.789062 L 323.855469 191.0625 L 320.609375 191.0625 L 320.613281 192.699219 L 317.367188 192.699219 " fill-opacity="1" fill-rule="nonzero"/><path fill="#070a0e" d="M 323.851562 187.789062 L 323.851562 191.0625 L 320.609375 191.0625 L 320.609375 192.699219 L 317.367188 192.699219 L 317.367188 191.0625 L 318.992188 191.0625 L 318.992188 189.425781 L 320.609375 189.425781 L 320.609375 187.789062 L 323.851562 187.789062 " fill-opacity="1" fill-rule="nonzero"/><path fill="#070a0e" d="M 322.230469 186.152344 L 322.230469 184.515625 L 323.851562 184.515625 L 323.855469 186.152344 L 322.230469 186.152344 " fill-opacity="1" fill-rule="nonzero"/><path fill="#070a0e" d="M 322.230469 184.515625 L 323.851562 184.515625 L 323.851562 186.152344 L 322.230469 186.152344 L 322.230469 184.515625 " fill-opacity="1" fill-rule="nonzero"/><path fill="#070a0e" d="M 323.851562 184.519531 L 323.851562 182.878906 L 325.472656 182.878906 L 325.476562 184.519531 L 323.851562 184.519531 " fill-opacity="1" fill-rule="nonzero"/><path fill="#070a0e" d="M 325.472656 182.878906 L 325.472656 184.515625 L 323.851562 184.515625 L 323.851562 182.878906 L 325.472656 182.878906 " fill-opacity="1" fill-rule="nonzero"/><path fill="#000000" d="M 302.777344 184.519531 L 302.777344 182.878906 L 304.398438 182.878906 L 304.398438 184.519531 L 302.777344 184.519531 " fill-opacity="1" fill-rule="nonzero"/><path fill="#000000" d="M 302.777344 182.878906 L 304.398438 182.878906 L 304.398438 184.515625 L 302.777344 184.515625 L 302.777344 182.878906 " fill-opacity="1" fill-rule="nonzero"/><path fill="#000000" d="M 306.019531 174.699219 L 306.019531 173.0625 L 309.261719 173.0625 L 309.261719 171.425781 L 315.746094 171.425781 L 315.75 173.0625 L 310.882812 173.0625 L 310.886719 174.699219 L 306.019531 174.699219 " fill-opacity="1" fill-rule="nonzero"/><path fill="#000000" d="M 306.019531 174.699219 L 306.019531 173.0625 L 309.261719 173.0625 L 309.261719 171.425781 L 315.746094 171.425781 L 315.746094 173.0625 L 310.882812 173.0625 L 310.882812 174.699219 L 306.019531 174.699219 " fill-opacity="1" fill-rule="nonzero"/><path fill="#000000" d="M 307.640625 187.789062 L 307.640625 186.152344 L 306.019531 186.152344 L 306.019531 184.515625 L 322.230469 184.515625 L 322.230469 186.152344 L 323.851562 186.152344 L 323.855469 187.789062 L 307.640625 187.789062 " fill-opacity="1" fill-rule="nonzero"/><path fill="#000000" d="M 322.230469 186.152344 L 323.851562 186.152344 L 323.851562 187.789062 L 307.640625 187.789062 L 307.640625 186.152344 L 306.019531 186.152344 L 306.019531 184.515625 L 322.230469 184.515625 L 322.230469 186.152344 " fill-opacity="1" fill-rule="nonzero"/><path fill="#000000" d="M 307.640625 194.335938 L 307.640625 191.0625 L 309.261719 191.0625 L 309.261719 192.699219 L 320.609375 192.699219 L 320.613281 194.335938 L 307.640625 194.335938 " fill-opacity="1" fill-rule="nonzero"/><path fill="#000000" d="M 320.609375 192.699219 L 320.609375 194.335938 L 307.640625 194.335938 L 307.640625 191.0625 L 309.261719 191.0625 L 309.261719 192.699219 L 320.609375 192.699219 " fill-opacity="1" fill-rule="nonzero"/><path fill="#000000" d="M 323.851562 186.152344 L 323.851562 184.515625 L 325.472656 184.515625 L 325.476562 186.152344 L 323.851562 186.152344 " fill-opacity="1" fill-rule="nonzero"/><path fill="#000000" d="M 325.472656 184.515625 L 325.472656 186.152344 L 323.851562 186.152344 L 323.851562 184.515625 L 325.472656 184.515625 " fill-opacity="1" fill-rule="nonzero"/><path fill="#000000" d="M 320.609375 192.699219 L 320.609375 191.0625 L 323.851562 191.0625 L 323.855469 192.699219 L 320.609375 192.699219 " fill-opacity="1" fill-rule="nonzero"/><path fill="#000000" d="M 323.851562 191.0625 L 323.851562 192.699219 L 320.609375 192.699219 L 320.609375 191.0625 L 323.851562 191.0625 " fill-opacity="1" fill-rule="nonzero"/><path fill="#000000" d="M 304.398438 174.699219 L 304.398438 173.0625 L 302.777344 173.0625 L 302.777344 171.425781 L 307.640625 171.425781 L 307.640625 169.789062 L 310.882812 169.785156 L 310.886719 171.425781 L 309.261719 171.425781 L 309.261719 173.0625 L 306.019531 173.0625 L 306.019531 174.699219 L 304.398438 174.699219 " fill-opacity="1" fill-rule="nonzero"/><path fill="#000000" d="M 310.882812 169.789062 L 310.882812 171.425781 L 309.261719 171.425781 L 309.261719 173.0625 L 306.019531 173.0625 L 306.019531 174.699219 L 304.398438 174.699219 L 304.398438 173.0625 L 302.777344 173.0625 L 302.777344 171.425781 L 307.640625 171.425781 L 307.640625 169.789062 L 310.882812 169.789062 " fill-opacity="1" fill-rule="nonzero"/><path fill="#000000" d="M 302.777344 168.152344 L 302.777344 166.515625 L 306.019531 166.515625 L 306.019531 168.152344 L 302.777344 168.152344 " fill-opacity="1" fill-rule="nonzero"/><path fill="#000000" d="M 306.019531 166.515625 L 306.019531 168.152344 L 302.777344 168.152344 L 302.777344 166.515625 L 306.019531 166.515625 " fill-opacity="1" fill-rule="nonzero"/><path fill="#000000" d="M 301.15625 186.152344 L 301.15625 173.0625 L 302.777344 173.0625 L 302.78125 186.152344 L 301.15625 186.152344 " fill-opacity="1" fill-rule="nonzero"/><path fill="#000000" d="M 302.777344 173.0625 L 302.777344 186.152344 L 301.15625 186.152344 L 301.15625 173.0625 L 302.777344 173.0625 " fill-opacity="1" fill-rule="nonzero"/><path fill="#000000" d="M 318.992188 184.519531 L 318.988281 179.609375 L 306.019531 179.609375 L 306.019531 177.96875 L 320.609375 177.96875 L 320.609375 176.335938 L 322.230469 176.332031 L 322.230469 174.699219 L 323.851562 174.699219 L 323.851562 173.0625 L 325.472656 173.0625 L 325.476562 177.96875 L 323.851562 177.972656 L 323.855469 181.242188 L 322.230469 181.242188 L 322.230469 182.878906 L 320.609375 182.882812 L 320.613281 184.519531 L 318.992188 184.519531 " fill-opacity="1" fill-rule="nonzero"/><path fill="#000000" d="M 325.472656 173.0625 L 325.472656 177.96875 L 323.851562 177.96875 L 323.851562 181.242188 L 322.230469 181.242188 L 322.230469 182.878906 L 320.609375 182.878906 L 320.609375 184.515625 L 318.992188 184.515625 L 318.992188 179.609375 L 306.019531 179.609375 L 306.019531 177.96875 L 320.609375 177.96875 L 320.609375 176.335938 L 322.230469 176.335938 L 322.230469 174.699219 L 323.851562 174.699219 L 323.851562 173.0625 L 325.472656 173.0625 " fill-opacity="1" fill-rule="nonzero"/><path fill="#000000" d="M 320.609375 171.425781 L 320.609375 169.789062 L 323.851562 169.785156 L 323.855469 171.425781 L 320.609375 171.425781 " fill-opacity="1" fill-rule="nonzero"/><path fill="#000000" d="M 320.609375 171.425781 L 320.609375 169.789062 L 323.851562 169.789062 L 323.851562 171.425781 L 320.609375 171.425781 " fill-opacity="1" fill-rule="nonzero"/><path fill="#000000" d="M 310.882812 192.699219 L 310.882812 191.0625 L 315.746094 191.0625 L 315.746094 189.425781 L 318.992188 189.425781 L 318.992188 191.0625 L 317.367188 191.0625 L 317.371094 192.699219 L 310.882812 192.699219 " fill-opacity="1" fill-rule="nonzero"/><path fill="#000000" d="M 318.992188 189.425781 L 318.992188 191.0625 L 317.367188 191.0625 L 317.367188 192.699219 L 310.882812 192.699219 L 310.882812 191.0625 L 315.746094 191.0625 L 315.746094 189.425781 L 318.992188 189.425781 " fill-opacity="1" fill-rule="nonzero"/><path fill="#000000" d="M 302.777344 176.335938 L 302.777344 174.699219 L 304.398438 174.699219 L 304.398438 176.335938 L 302.777344 176.335938 " fill-opacity="1" fill-rule="nonzero"/><path fill="#000000" d="M 304.398438 174.699219 L 304.398438 176.335938 L 302.777344 176.335938 L 302.777344 174.699219 L 304.398438 174.699219 " fill-opacity="1" fill-rule="nonzero"/><path fill="#000000" d="M 304.398438 177.972656 L 304.398438 176.335938 L 306.019531 176.332031 L 306.019531 177.972656 L 304.398438 177.972656 " fill-opacity="1" fill-rule="nonzero"/><path fill="#000000" d="M 306.019531 176.335938 L 306.019531 177.96875 L 304.398438 177.96875 L 304.398438 176.335938 L 306.019531 176.335938 " fill-opacity="1" fill-rule="nonzero"/><path fill="#000000" d="M 318.992188 169.789062 L 318.988281 168.152344 L 320.609375 168.152344 L 320.613281 169.789062 L 318.992188 169.789062 " fill-opacity="1" fill-rule="nonzero"/><path fill="#000000" d="M 320.609375 169.789062 L 318.992188 169.789062 L 318.992188 168.152344 L 320.609375 168.152344 L 320.609375 169.789062 " fill-opacity="1" fill-rule="nonzero"/><path fill="#000000" d="M 301.15625 171.425781 L 301.15625 169.789062 L 302.777344 169.785156 L 302.78125 171.425781 L 301.15625 171.425781 " fill-opacity="1" fill-rule="nonzero"/><path fill="#000000" d="M 302.777344 171.425781 L 301.15625 171.425781 L 301.15625 169.789062 L 302.777344 169.789062 L 302.777344 171.425781 " fill-opacity="1" fill-rule="nonzero"/><path fill="#000000" d="M 304.398438 171.425781 L 304.398438 169.789062 L 306.019531 169.785156 L 306.019531 171.425781 L 304.398438 171.425781 " fill-opacity="1" fill-rule="nonzero"/><path fill="#000000" d="M 306.019531 171.425781 L 304.398438 171.425781 L 304.398438 169.789062 L 306.019531 169.789062 L 306.019531 171.425781 " fill-opacity="1" fill-rule="nonzero"/><path fill="#000000" d="M 304.398438 184.519531 L 304.398438 182.878906 L 310.882812 182.878906 L 310.886719 184.519531 L 304.398438 184.519531 " fill-opacity="1" fill-rule="nonzero"/><path fill="#000000" d="M 310.882812 184.515625 L 304.398438 184.515625 L 304.398438 182.878906 L 310.882812 182.878906 L 310.882812 184.515625 " fill-opacity="1" fill-rule="nonzero"/><path fill="#000000" d="M 301.15625 169.789062 L 301.15625 168.152344 L 302.777344 168.152344 L 302.78125 169.789062 L 301.15625 169.789062 " fill-opacity="1" fill-rule="nonzero"/><path fill="#000000" d="M 302.777344 168.152344 L 302.777344 169.789062 L 301.15625 169.789062 L 301.15625 168.152344 L 302.777344 168.152344 " fill-opacity="1" fill-rule="nonzero"/><g clip-path="url(#cc14f5164c)"><path fill="#000000" d="M 299.535156 173.0625 L 299.535156 169.789062 L 301.15625 169.785156 L 301.15625 173.0625 L 299.535156 173.0625 " fill-opacity="1" fill-rule="nonzero"/><path fill="#000000" d="M 301.15625 169.789062 L 301.15625 173.0625 L 299.535156 173.0625 L 299.535156 169.789062 L 301.15625 169.789062 " fill-opacity="1" fill-rule="nonzero"/></g><g fill="#070a0e" fill-opacity="1"><g transform="translate(41.23521, 195.749987)"><g><path d="M 13.335938 -13.335938 L 15.625 -13.335938 L 15.625 -15.625 L 13.335938 -15.625 Z M 0 0 L 2.285156 0 L 2.285156 -2.285156 L 0 -2.285156 Z M 0 -2.667969 L 2.285156 -2.667969 L 2.285156 -4.953125 L 0 -4.953125 Z M 2.667969 0 L 4.953125 0 L 4.953125 -2.285156 L 2.667969 -2.285156 Z M 0 -5.335938 L 2.285156 -5.335938 L 2.285156 -7.621094 L 0 -7.621094 Z M 2.667969 -2.667969 L 4.953125 -2.667969 L 4.953125 -4.953125 L 2.667969 -4.953125 Z M 5.335938 0 L 7.621094 0 L 7.621094 -2.285156 L 5.335938 -2.285156 Z M 0 -8.003906 L 2.285156 -8.003906 L 2.285156 -10.289062 L 0 -10.289062 Z M 2.667969 -5.335938 L 4.953125 -5.335938 L 4.953125 -7.621094 L 2.667969 -7.621094 Z M 8.003906 0 L 10.289062 0 L 10.289062 -2.285156 L 8.003906 -2.285156 Z M 0 -10.671875 L 2.285156 -10.671875 L 2.285156 -12.957031 L 0 -12.957031 Z M 2.667969 -8.003906 L 4.953125 -8.003906 L 4.953125 -10.289062 L 2.667969 -10.289062 Z M 10.671875 0 L 12.957031 0 L 12.957031 -2.285156 L 10.671875 -2.285156 Z M 0 -13.335938 L 2.285156 -13.335938 L 2.285156 -15.625 L 0 -15.625 Z M 2.667969 -10.671875 L 4.953125 -10.671875 L 4.953125 -12.957031 L 2.667969 -12.957031 Z M 10.671875 -2.667969 L 12.957031 -2.667969 L 12.957031 -4.953125 L 10.671875 -4.953125 Z M 0 -16.003906 L 2.285156 -16.003906 L 2.285156 -18.292969 L 0 -18.292969 Z M 2.667969 -13.335938 L 4.953125 -13.335938 L 4.953125 -15.625 L 2.667969 -15.625 Z M 10.671875 -5.335938 L 12.957031 -5.335938 L 12.957031 -7.621094 L 10.671875 -7.621094 Z M 13.335938 -2.667969 L 15.625 -2.667969 L 15.625 -4.953125 L 13.335938 -4.953125 Z M 2.667969 -16.003906 L 4.953125 -16.003906 L 4.953125 -18.292969 L 2.667969 -18.292969 Z M 10.671875 -8.003906 L 12.957031 -8.003906 L 12.957031 -10.289062 L 10.671875 -10.289062 Z M 13.335938 -5.335938 L 15.625 -5.335938 L 15.625 -7.621094 L 13.335938 -7.621094 Z M 5.335938 -16.003906 L 7.621094 -16.003906 L 7.621094 -18.292969 L 5.335938 -18.292969 Z M 10.671875 -10.671875 L 12.957031 -10.671875 L 12.957031 -12.957031 L 10.671875 -12.957031 Z M 13.335938 -8.003906 L 15.625 -8.003906 L 15.625 -10.289062 L 13.335938 -10.289062 Z M 8.003906 -16.003906 L 10.289062 -16.003906 L 10.289062 -18.292969 L 8.003906 -18.292969 Z M 10.671875 -13.335938 L 12.957031 -13.335938 L 12.957031 -15.625 L 10.671875 -15.625 Z M 13.335938 -10.671875 L 15.625 -10.671875 L 15.625 -12.957031 L 13.335938 -12.957031 Z M 10.671875 -16.003906 L 12.957031 -16.003906 L 12.957031 -18.292969 L 10.671875 -18.292969 Z M 10.671875 -16.003906 "/></g></g></g><g fill="#070a0e" fill-opacity="1"><g transform="translate(59.522124, 195.749987)"><g><path d="M 5.335938 -16.003906 L 7.621094 -16.003906 L 7.621094 -18.292969 L 5.335938 -18.292969 Z M 0 0 L 2.285156 0 L 2.285156 -2.285156 L 0 -2.285156 Z M 2.667969 0 L 4.953125 0 L 4.953125 -2.285156 L 2.667969 -2.285156 Z M 2.667969 -2.667969 L 4.953125 -2.667969 L 4.953125 -4.953125 L 2.667969 -4.953125 Z M 5.335938 0 L 7.621094 0 L 7.621094 -2.285156 L 5.335938 -2.285156 Z M 2.667969 -5.335938 L 4.953125 -5.335938 L 4.953125 -7.621094 L 2.667969 -7.621094 Z M 5.335938 -2.667969 L 7.621094 -2.667969 L 7.621094 -4.953125 L 5.335938 -4.953125 Z M 8.003906 0 L 10.289062 0 L 10.289062 -2.285156 L 8.003906 -2.285156 Z M 0 -10.671875 L 2.285156 -10.671875 L 2.285156 -12.957031 L 0 -12.957031 Z M 2.667969 -8.003906 L 4.953125 -8.003906 L 4.953125 -10.289062 L 2.667969 -10.289062 Z M 5.335938 -5.335938 L 7.621094 -5.335938 L 7.621094 -7.621094 L 5.335938 -7.621094 Z M 2.667969 -10.671875 L 4.953125 -10.671875 L 4.953125 -12.957031 L 2.667969 -12.957031 Z M 5.335938 -8.003906 L 7.621094 -8.003906 L 7.621094 -10.289062 L 5.335938 -10.289062 Z M 5.335938 -10.671875 L 7.621094 -10.671875 L 7.621094 -12.957031 L 5.335938 -12.957031 Z M 2.667969 -16.003906 L 4.953125 -16.003906 L 4.953125 -18.292969 L 2.667969 -18.292969 Z M 8.003906 -10.671875 L 10.289062 -10.671875 L 10.289062 -12.957031 L 8.003906 -12.957031 Z M 8.003906 -10.671875 "/></g></g></g><g fill="#070a0e" fill-opacity="1"><g transform="translate(72.475359, 195.749987)"><g><path d="M 13.335938 -8.003906 L 15.625 -8.003906 L 15.625 -10.289062 L 13.335938 -10.289062 Z M 2.667969 5.335938 L 4.953125 5.335938 L 4.953125 3.046875 L 2.667969 3.046875 Z M 5.335938 5.335938 L 7.621094 5.335938 L 7.621094 3.046875 L 5.335938 3.046875 Z M 0 -2.667969 L 2.285156 -2.667969 L 2.285156 -4.953125 L 0 -4.953125 Z M 2.667969 0 L 4.953125 0 L 4.953125 -2.285156 L 2.667969 -2.285156 Z M 8.003906 5.335938 L 10.289062 5.335938 L 10.289062 3.046875 L 8.003906 3.046875 Z M 0 -5.335938 L 2.285156 -5.335938 L 2.285156 -7.621094 L 0 -7.621094 Z M 2.667969 -2.667969 L 4.953125 -2.667969 L 4.953125 -4.953125 L 2.667969 -4.953125 Z M 5.335938 0 L 7.621094 0 L 7.621094 -2.285156 L 5.335938 -2.285156 Z M 10.671875 5.335938 L 12.957031 5.335938 L 12.957031 3.046875 L 10.671875 3.046875 Z M 0 -8.003906 L 2.285156 -8.003906 L 2.285156 -10.289062 L 0 -10.289062 Z M 2.667969 -5.335938 L 4.953125 -5.335938 L 4.953125 -7.621094 L 2.667969 -7.621094 Z M 8.003906 0 L 10.289062 0 L 10.289062 -2.285156 L 8.003906 -2.285156 Z M 10.671875 2.667969 L 12.957031 2.667969 L 12.957031 0.382812 L 10.671875 0.382812 Z M 2.667969 -8.003906 L 4.953125 -8.003906 L 4.953125 -10.289062 L 2.667969 -10.289062 Z M 10.671875 0 L 12.957031 0 L 12.957031 -2.285156 L 10.671875 -2.285156 Z M 13.335938 2.667969 L 15.625 2.667969 L 15.625 0.382812 L 13.335938 0.382812 Z M 2.667969 -10.671875 L 4.953125 -10.671875 L 4.953125 -12.957031 L 2.667969 -12.957031 Z M 10.671875 -2.667969 L 12.957031 -2.667969 L 12.957031 -4.953125 L 10.671875 -4.953125 Z M 13.335938 0 L 15.625 0 L 15.625 -2.285156 L 13.335938 -2.285156 Z M 5.335938 -10.671875 L 7.621094 -10.671875 L 7.621094 -12.957031 L 5.335938 -12.957031 Z M 10.671875 -5.335938 L 12.957031 -5.335938 L 12.957031 -7.621094 L 10.671875 -7.621094 Z M 13.335938 -2.667969 L 15.625 -2.667969 L 15.625 -4.953125 L 13.335938 -4.953125 Z M 8.003906 -10.671875 L 10.289062 -10.671875 L 10.289062 -12.957031 L 8.003906 -12.957031 Z M 10.671875 -8.003906 L 12.957031 -8.003906 L 12.957031 -10.289062 L 10.671875 -10.289062 Z M 13.335938 -5.335938 L 15.625 -5.335938 L 15.625 -7.621094 L 13.335938 -7.621094 Z M 10.671875 -10.671875 L 12.957031 -10.671875 L 12.957031 -12.957031 L 10.671875 -12.957031 Z M 10.671875 -10.671875 "/></g></g></g><g fill="#070a0e" fill-opacity="1"><g transform="translate(90.762272, 195.749987)"><g><path d="M 5.335938 -16.003906 L 7.621094 -16.003906 L 7.621094 -18.292969 L 5.335938 -18.292969 Z M 0 0 L 2.285156 0 L 2.285156 -2.285156 L 0 -2.285156 Z M 2.667969 0 L 4.953125 0 L 4.953125 -2.285156 L 2.667969 -2.285156 Z M 2.667969 -2.667969 L 4.953125 -2.667969 L 4.953125 -4.953125 L 2.667969 -4.953125 Z M 5.335938 0 L 7.621094 0 L 7.621094 -2.285156 L 5.335938 -2.285156 Z M 2.667969 -5.335938 L 4.953125 -5.335938 L 4.953125 -7.621094 L 2.667969 -7.621094 Z M 5.335938 -2.667969 L 7.621094 -2.667969 L 7.621094 -4.953125 L 5.335938 -4.953125 Z M 8.003906 0 L 10.289062 0 L 10.289062 -2.285156 L 8.003906 -2.285156 Z M 0 -10.671875 L 2.285156 -10.671875 L 2.285156 -12.957031 L 0 -12.957031 Z M 2.667969 -8.003906 L 4.953125 -8.003906 L 4.953125 -10.289062 L 2.667969 -10.289062 Z M 5.335938 -5.335938 L 7.621094 -5.335938 L 7.621094 -7.621094 L 5.335938 -7.621094 Z M 2.667969 -10.671875 L 4.953125 -10.671875 L 4.953125 -12.957031 L 2.667969 -12.957031 Z M 5.335938 -8.003906 L 7.621094 -8.003906 L 7.621094 -10.289062 L 5.335938 -10.289062 Z M 5.335938 -10.671875 L 7.621094 -10.671875 L 7.621094 -12.957031 L 5.335938 -12.957031 Z M 2.667969 -16.003906 L 4.953125 -16.003906 L 4.953125 -18.292969 L 2.667969 -18.292969 Z M 8.003906 -10.671875 L 10.289062 -10.671875 L 10.289062 -12.957031 L 8.003906 -12.957031 Z M 8.003906 -10.671875 "/></g></g></g><g fill="#070a0e" fill-opacity="1"><g transform="translate(103.715507, 195.749987)"><g><path d="M 5.335938 -16.003906 L 7.621094 -16.003906 L 7.621094 -18.292969 L 5.335938 -18.292969 Z M 2.667969 0 L 4.953125 0 L 4.953125 -2.285156 L 2.667969 -2.285156 Z M 2.667969 -2.667969 L 4.953125 -2.667969 L 4.953125 -4.953125 L 2.667969 -4.953125 Z M 5.335938 0 L 7.621094 0 L 7.621094 -2.285156 L 5.335938 -2.285156 Z M 2.667969 -5.335938 L 4.953125 -5.335938 L 4.953125 -7.621094 L 2.667969 -7.621094 Z M 5.335938 -2.667969 L 7.621094 -2.667969 L 7.621094 -4.953125 L 5.335938 -4.953125 Z M 0 -10.671875 L 2.285156 -10.671875 L 2.285156 -12.957031 L 0 -12.957031 Z M 2.667969 -8.003906 L 4.953125 -8.003906 L 4.953125 -10.289062 L 2.667969 -10.289062 Z M 5.335938 -5.335938 L 7.621094 -5.335938 L 7.621094 -7.621094 L 5.335938 -7.621094 Z M 2.667969 -10.671875 L 4.953125 -10.671875 L 4.953125 -12.957031 L 2.667969 -12.957031 Z M 5.335938 -8.003906 L 7.621094 -8.003906 L 7.621094 -10.289062 L 5.335938 -10.289062 Z M 2.667969 -13.335938 L 4.953125 -13.335938 L 4.953125 -15.625 L 2.667969 -15.625 Z M 5.335938 -10.671875 L 7.621094 -10.671875 L 7.621094 -12.957031 L 5.335938 -12.957031 Z M 2.667969 -16.003906 L 4.953125 -16.003906 L 4.953125 -18.292969 L 2.667969 -18.292969 Z M 5.335938 -13.335938 L 7.621094 -13.335938 L 7.621094 -15.625 L 5.335938 -15.625 Z M 8.003906 -10.671875 L 10.289062 -10.671875 L 10.289062 -12.957031 L 8.003906 -12.957031 Z M 8.003906 -10.671875 "/></g></g></g><g fill="#070a0e" fill-opacity="1"><g transform="translate(116.668742, 195.749987)"><g><path d="M 13.335938 -10.671875 L 15.625 -10.671875 L 15.625 -12.957031 L 13.335938 -12.957031 Z M 0 -2.667969 L 2.285156 -2.667969 L 2.285156 -4.953125 L 0 -4.953125 Z M 2.667969 0 L 4.953125 0 L 4.953125 -2.285156 L 2.667969 -2.285156 Z M 0 -5.335938 L 2.285156 -5.335938 L 2.285156 -7.621094 L 0 -7.621094 Z M 2.667969 -2.667969 L 4.953125 -2.667969 L 4.953125 -4.953125 L 2.667969 -4.953125 Z M 5.335938 0 L 7.621094 0 L 7.621094 -2.285156 L 5.335938 -2.285156 Z M 0 -8.003906 L 2.285156 -8.003906 L 2.285156 -10.289062 L 0 -10.289062 Z M 2.667969 -5.335938 L 4.953125 -5.335938 L 4.953125 -7.621094 L 2.667969 -7.621094 Z M 8.003906 0 L 10.289062 0 L 10.289062 -2.285156 L 8.003906 -2.285156 Z M 2.667969 -8.003906 L 4.953125 -8.003906 L 4.953125 -10.289062 L 2.667969 -10.289062 Z M 10.671875 0 L 12.957031 0 L 12.957031 -2.285156 L 10.671875 -2.285156 Z M 2.667969 -10.671875 L 4.953125 -10.671875 L 4.953125 -12.957031 L 2.667969 -12.957031 Z M 10.671875 -2.667969 L 12.957031 -2.667969 L 12.957031 -4.953125 L 10.671875 -4.953125 Z M 13.335938 0 L 15.625 0 L 15.625 -2.285156 L 13.335938 -2.285156 Z M 5.335938 -10.671875 L 7.621094 -10.671875 L 7.621094 -12.957031 L 5.335938 -12.957031 Z M 10.671875 -5.335938 L 12.957031 -5.335938 L 12.957031 -7.621094 L 10.671875 -7.621094 Z M 13.335938 -2.667969 L 15.625 -2.667969 L 15.625 -4.953125 L 13.335938 -4.953125 Z M 8.003906 -10.671875 L 10.289062 -10.671875 L 10.289062 -12.957031 L 8.003906 -12.957031 Z M 10.671875 -8.003906 L 12.957031 -8.003906 L 12.957031 -10.289062 L 10.671875 -10.289062 Z M 13.335938 -5.335938 L 15.625 -5.335938 L 15.625 -7.621094 L 13.335938 -7.621094 Z M 10.671875 -10.671875 L 12.957031 -10.671875 L 12.957031 -12.957031 L 10.671875 -12.957031 Z M 13.335938 -8.003906 L 15.625 -8.003906 L 15.625 -10.289062 L 13.335938 -10.289062 Z M 13.335938 -8.003906 "/></g></g></g><g fill="#070a0e" fill-opacity="1"><g transform="translate(134.955656, 195.749987)"><g><path d="M 2.667969 -16.003906 L 4.953125 -16.003906 L 4.953125 -18.292969 L 2.667969 -18.292969 Z M 0 0 L 2.285156 0 L 2.285156 -2.285156 L 0 -2.285156 Z M 0 -2.667969 L 2.285156 -2.667969 L 2.285156 -4.953125 L 0 -4.953125 Z M 2.667969 0 L 4.953125 0 L 4.953125 -2.285156 L 2.667969 -2.285156 Z M 0 -5.335938 L 2.285156 -5.335938 L 2.285156 -7.621094 L 0 -7.621094 Z M 2.667969 -2.667969 L 4.953125 -2.667969 L 4.953125 -4.953125 L 2.667969 -4.953125 Z M 0 -8.003906 L 2.285156 -8.003906 L 2.285156 -10.289062 L 0 -10.289062 Z M 2.667969 -5.335938 L 4.953125 -5.335938 L 4.953125 -7.621094 L 2.667969 -7.621094 Z M 0 -10.671875 L 2.285156 -10.671875 L 2.285156 -12.957031 L 0 -12.957031 Z M 2.667969 -8.003906 L 4.953125 -8.003906 L 4.953125 -10.289062 L 2.667969 -10.289062 Z M 0 -13.335938 L 2.285156 -13.335938 L 2.285156 -15.625 L 0 -15.625 Z M 2.667969 -10.671875 L 4.953125 -10.671875 L 4.953125 -12.957031 L 2.667969 -12.957031 Z M 0 -16.003906 L 2.285156 -16.003906 L 2.285156 -18.292969 L 0 -18.292969 Z M 2.667969 -13.335938 L 4.953125 -13.335938 L 4.953125 -15.625 L 2.667969 -15.625 Z M 2.667969 -13.335938 "/></g></g></g><g fill="#070a0e" fill-opacity="1"><g transform="translate(142.5752, 195.749987)"><g/></g></g><g fill="#070a0e" fill-opacity="1"><g transform="translate(151.718663, 195.749987)"><g><path d="M 10.671875 -16.003906 L 12.957031 -16.003906 L 12.957031 -18.292969 L 10.671875 -18.292969 Z M 0 0 L 2.285156 0 L 2.285156 -2.285156 L 0 -2.285156 Z M 0 -2.667969 L 2.285156 -2.667969 L 2.285156 -4.953125 L 0 -4.953125 Z M 2.667969 0 L 4.953125 0 L 4.953125 -2.285156 L 2.667969 -2.285156 Z M 0 -5.335938 L 2.285156 -5.335938 L 2.285156 -7.621094 L 0 -7.621094 Z M 2.667969 -2.667969 L 4.953125 -2.667969 L 4.953125 -4.953125 L 2.667969 -4.953125 Z M 5.335938 0 L 7.621094 0 L 7.621094 -2.285156 L 5.335938 -2.285156 Z M 0 -8.003906 L 2.285156 -8.003906 L 2.285156 -10.289062 L 0 -10.289062 Z M 2.667969 -5.335938 L 4.953125 -5.335938 L 4.953125 -7.621094 L 2.667969 -7.621094 Z M 8.003906 0 L 10.289062 0 L 10.289062 -2.285156 L 8.003906 -2.285156 Z M 0 -10.671875 L 2.285156 -10.671875 L 2.285156 -12.957031 L 0 -12.957031 Z M 2.667969 -8.003906 L 4.953125 -8.003906 L 4.953125 -10.289062 L 2.667969 -10.289062 Z M 10.671875 0 L 12.957031 0 L 12.957031 -2.285156 L 10.671875 -2.285156 Z M 0 -13.335938 L 2.285156 -13.335938 L 2.285156 -15.625 L 0 -15.625 Z M 2.667969 -10.671875 L 4.953125 -10.671875 L 4.953125 -12.957031 L 2.667969 -12.957031 Z M 5.335938 -8.003906 L 7.621094 -8.003906 L 7.621094 -10.289062 L 5.335938 -10.289062 Z M 0 -16.003906 L 2.285156 -16.003906 L 2.285156 -18.292969 L 0 -18.292969 Z M 2.667969 -13.335938 L 4.953125 -13.335938 L 4.953125 -15.625 L 2.667969 -15.625 Z M 8.003906 -8.003906 L 10.289062 -8.003906 L 10.289062 -10.289062 L 8.003906 -10.289062 Z M 2.667969 -16.003906 L 4.953125 -16.003906 L 4.953125 -18.292969 L 2.667969 -18.292969 Z M 5.335938 -16.003906 L 7.621094 -16.003906 L 7.621094 -18.292969 L 5.335938 -18.292969 Z M 8.003906 -16.003906 L 10.289062 -16.003906 L 10.289062 -18.292969 L 8.003906 -18.292969 Z M 8.003906 -16.003906 "/></g></g></g><g fill="#070a0e" fill-opacity="1"><g transform="translate(167.338737, 195.749987)"><g><path d="M 10.671875 -10.671875 L 12.957031 -10.671875 L 12.957031 -12.957031 L 10.671875 -12.957031 Z M 0 0 L 2.285156 0 L 2.285156 -2.285156 L 0 -2.285156 Z M 2.667969 0 L 4.953125 0 L 4.953125 -2.285156 L 2.667969 -2.285156 Z M 0 -5.335938 L 2.285156 -5.335938 L 2.285156 -7.621094 L 0 -7.621094 Z M 5.335938 0 L 7.621094 0 L 7.621094 -2.285156 L 5.335938 -2.285156 Z M 0 -8.003906 L 2.285156 -8.003906 L 2.285156 -10.289062 L 0 -10.289062 Z M 2.667969 -5.335938 L 4.953125 -5.335938 L 4.953125 -7.621094 L 2.667969 -7.621094 Z M 8.003906 0 L 10.289062 0 L 10.289062 -2.285156 L 8.003906 -2.285156 Z M 2.667969 -8.003906 L 4.953125 -8.003906 L 4.953125 -10.289062 L 2.667969 -10.289062 Z M 5.335938 -5.335938 L 7.621094 -5.335938 L 7.621094 -7.621094 L 5.335938 -7.621094 Z M 8.003906 -2.667969 L 10.289062 -2.667969 L 10.289062 -4.953125 L 8.003906 -4.953125 Z M 2.667969 -10.671875 L 4.953125 -10.671875 L 4.953125 -12.957031 L 2.667969 -12.957031 Z M 8.003906 -5.335938 L 10.289062 -5.335938 L 10.289062 -7.621094 L 8.003906 -7.621094 Z M 10.671875 -2.667969 L 12.957031 -2.667969 L 12.957031 -4.953125 L 10.671875 -4.953125 Z M 5.335938 -10.671875 L 7.621094 -10.671875 L 7.621094 -12.957031 L 5.335938 -12.957031 Z M 10.671875 -5.335938 L 12.957031 -5.335938 L 12.957031 -7.621094 L 10.671875 -7.621094 Z M 8.003906 -10.671875 L 10.289062 -10.671875 L 10.289062 -12.957031 L 8.003906 -12.957031 Z M 8.003906 -10.671875 "/></g></g></g><g fill="#070a0e" fill-opacity="1"><g transform="translate(182.958811, 195.749987)"><g><path d="M 13.335938 -8.003906 L 15.625 -8.003906 L 15.625 -10.289062 L 13.335938 -10.289062 Z M 0 5.335938 L 2.285156 5.335938 L 2.285156 3.046875 L 0 3.046875 Z M 0 2.667969 L 2.285156 2.667969 L 2.285156 0.382812 L 0 0.382812 Z M 2.667969 5.335938 L 4.953125 5.335938 L 4.953125 3.046875 L 2.667969 3.046875 Z M 0 0 L 2.285156 0 L 2.285156 -2.285156 L 0 -2.285156 Z M 2.667969 2.667969 L 4.953125 2.667969 L 4.953125 0.382812 L 2.667969 0.382812 Z M 0 -2.667969 L 2.285156 -2.667969 L 2.285156 -4.953125 L 0 -4.953125 Z M 2.667969 0 L 4.953125 0 L 4.953125 -2.285156 L 2.667969 -2.285156 Z M 0 -5.335938 L 2.285156 -5.335938 L 2.285156 -7.621094 L 0 -7.621094 Z M 2.667969 -2.667969 L 4.953125 -2.667969 L 4.953125 -4.953125 L 2.667969 -4.953125 Z M 5.335938 0 L 7.621094 0 L 7.621094 -2.285156 L 5.335938 -2.285156 Z M 0 -8.003906 L 2.285156 -8.003906 L 2.285156 -10.289062 L 0 -10.289062 Z M 2.667969 -5.335938 L 4.953125 -5.335938 L 4.953125 -7.621094 L 2.667969 -7.621094 Z M 8.003906 0 L 10.289062 0 L 10.289062 -2.285156 L 8.003906 -2.285156 Z M 2.667969 -8.003906 L 4.953125 -8.003906 L 4.953125 -10.289062 L 2.667969 -10.289062 Z M 10.671875 0 L 12.957031 0 L 12.957031 -2.285156 L 10.671875 -2.285156 Z M 2.667969 -10.671875 L 4.953125 -10.671875 L 4.953125 -12.957031 L 2.667969 -12.957031 Z M 10.671875 -2.667969 L 12.957031 -2.667969 L 12.957031 -4.953125 L 10.671875 -4.953125 Z M 5.335938 -10.671875 L 7.621094 -10.671875 L 7.621094 -12.957031 L 5.335938 -12.957031 Z M 10.671875 -5.335938 L 12.957031 -5.335938 L 12.957031 -7.621094 L 10.671875 -7.621094 Z M 13.335938 -2.667969 L 15.625 -2.667969 L 15.625 -4.953125 L 13.335938 -4.953125 Z M 8.003906 -10.671875 L 10.289062 -10.671875 L 10.289062 -12.957031 L 8.003906 -12.957031 Z M 10.671875 -8.003906 L 12.957031 -8.003906 L 12.957031 -10.289062 L 10.671875 -10.289062 Z M 13.335938 -5.335938 L 15.625 -5.335938 L 15.625 -7.621094 L 13.335938 -7.621094 Z M 10.671875 -10.671875 L 12.957031 -10.671875 L 12.957031 -12.957031 L 10.671875 -12.957031 Z M 10.671875 -10.671875 "/></g></g></g><g fill="#070a0e" fill-opacity="1"><g transform="translate(201.245725, 195.749987)"><g><path d="M 13.335938 -8.003906 L 15.625 -8.003906 L 15.625 -10.289062 L 13.335938 -10.289062 Z M 0 0 L 2.285156 0 L 2.285156 -2.285156 L 0 -2.285156 Z M 0 -2.667969 L 2.285156 -2.667969 L 2.285156 -4.953125 L 0 -4.953125 Z M 2.667969 0 L 4.953125 0 L 4.953125 -2.285156 L 2.667969 -2.285156 Z M 0 -5.335938 L 2.285156 -5.335938 L 2.285156 -7.621094 L 0 -7.621094 Z M 2.667969 -2.667969 L 4.953125 -2.667969 L 4.953125 -4.953125 L 2.667969 -4.953125 Z M 0 -8.003906 L 2.285156 -8.003906 L 2.285156 -10.289062 L 0 -10.289062 Z M 2.667969 -5.335938 L 4.953125 -5.335938 L 4.953125 -7.621094 L 2.667969 -7.621094 Z M 2.667969 -8.003906 L 4.953125 -8.003906 L 4.953125 -10.289062 L 2.667969 -10.289062 Z M 2.667969 -10.671875 L 4.953125 -10.671875 L 4.953125 -12.957031 L 2.667969 -12.957031 Z M 5.335938 -10.671875 L 7.621094 -10.671875 L 7.621094 -12.957031 L 5.335938 -12.957031 Z M 10.671875 -5.335938 L 12.957031 -5.335938 L 12.957031 -7.621094 L 10.671875 -7.621094 Z M 8.003906 -10.671875 L 10.289062 -10.671875 L 10.289062 -12.957031 L 8.003906 -12.957031 Z M 10.671875 -8.003906 L 12.957031 -8.003906 L 12.957031 -10.289062 L 10.671875 -10.289062 Z M 13.335938 -5.335938 L 15.625 -5.335938 L 15.625 -7.621094 L 13.335938 -7.621094 Z M 10.671875 -10.671875 L 12.957031 -10.671875 L 12.957031 -12.957031 L 10.671875 -12.957031 Z M 10.671875 -10.671875 "/></g></g></g><g fill="#070a0e" fill-opacity="1"><g transform="translate(219.532638, 195.749987)"><g><path d="M 13.335938 -8.003906 L 15.625 -8.003906 L 15.625 -10.289062 L 13.335938 -10.289062 Z M 0 -2.667969 L 2.285156 -2.667969 L 2.285156 -4.953125 L 0 -4.953125 Z M 2.667969 0 L 4.953125 0 L 4.953125 -2.285156 L 2.667969 -2.285156 Z M 0 -5.335938 L 2.285156 -5.335938 L 2.285156 -7.621094 L 0 -7.621094 Z M 2.667969 -2.667969 L 4.953125 -2.667969 L 4.953125 -4.953125 L 2.667969 -4.953125 Z M 5.335938 0 L 7.621094 0 L 7.621094 -2.285156 L 5.335938 -2.285156 Z M 0 -8.003906 L 2.285156 -8.003906 L 2.285156 -10.289062 L 0 -10.289062 Z M 2.667969 -5.335938 L 4.953125 -5.335938 L 4.953125 -7.621094 L 2.667969 -7.621094 Z M 8.003906 0 L 10.289062 0 L 10.289062 -2.285156 L 8.003906 -2.285156 Z M 2.667969 -8.003906 L 4.953125 -8.003906 L 4.953125 -10.289062 L 2.667969 -10.289062 Z M 5.335938 -5.335938 L 7.621094 -5.335938 L 7.621094 -7.621094 L 5.335938 -7.621094 Z M 10.671875 0 L 12.957031 0 L 12.957031 -2.285156 L 10.671875 -2.285156 Z M 2.667969 -10.671875 L 4.953125 -10.671875 L 4.953125 -12.957031 L 2.667969 -12.957031 Z M 8.003906 -5.335938 L 10.289062 -5.335938 L 10.289062 -7.621094 L 8.003906 -7.621094 Z M 5.335938 -10.671875 L 7.621094 -10.671875 L 7.621094 -12.957031 L 5.335938 -12.957031 Z M 10.671875 -5.335938 L 12.957031 -5.335938 L 12.957031 -7.621094 L 10.671875 -7.621094 Z M 8.003906 -10.671875 L 10.289062 -10.671875 L 10.289062 -12.957031 L 8.003906 -12.957031 Z M 10.671875 -8.003906 L 12.957031 -8.003906 L 12.957031 -10.289062 L 10.671875 -10.289062 Z M 13.335938 -5.335938 L 15.625 -5.335938 L 15.625 -7.621094 L 13.335938 -7.621094 Z M 10.671875 -10.671875 L 12.957031 -10.671875 L 12.957031 -12.957031 L 10.671875 -12.957031 Z M 10.671875 -10.671875 "/></g></g></g><g fill="#070a0e" fill-opacity="1"><g transform="translate(237.819563, 195.749987)"><g><path d="M 10.671875 -10.671875 L 12.957031 -10.671875 L 12.957031 -12.957031 L 10.671875 -12.957031 Z M 0 0 L 2.285156 0 L 2.285156 -2.285156 L 0 -2.285156 Z M 2.667969 0 L 4.953125 0 L 4.953125 -2.285156 L 2.667969 -2.285156 Z M 0 -5.335938 L 2.285156 -5.335938 L 2.285156 -7.621094 L 0 -7.621094 Z M 5.335938 0 L 7.621094 0 L 7.621094 -2.285156 L 5.335938 -2.285156 Z M 0 -8.003906 L 2.285156 -8.003906 L 2.285156 -10.289062 L 0 -10.289062 Z M 2.667969 -5.335938 L 4.953125 -5.335938 L 4.953125 -7.621094 L 2.667969 -7.621094 Z M 8.003906 0 L 10.289062 0 L 10.289062 -2.285156 L 8.003906 -2.285156 Z M 2.667969 -8.003906 L 4.953125 -8.003906 L 4.953125 -10.289062 L 2.667969 -10.289062 Z M 5.335938 -5.335938 L 7.621094 -5.335938 L 7.621094 -7.621094 L 5.335938 -7.621094 Z M 8.003906 -2.667969 L 10.289062 -2.667969 L 10.289062 -4.953125 L 8.003906 -4.953125 Z M 2.667969 -10.671875 L 4.953125 -10.671875 L 4.953125 -12.957031 L 2.667969 -12.957031 Z M 8.003906 -5.335938 L 10.289062 -5.335938 L 10.289062 -7.621094 L 8.003906 -7.621094 Z M 10.671875 -2.667969 L 12.957031 -2.667969 L 12.957031 -4.953125 L 10.671875 -4.953125 Z M 5.335938 -10.671875 L 7.621094 -10.671875 L 7.621094 -12.957031 L 5.335938 -12.957031 Z M 10.671875 -5.335938 L 12.957031 -5.335938 L 12.957031 -7.621094 L 10.671875 -7.621094 Z M 8.003906 -10.671875 L 10.289062 -10.671875 L 10.289062 -12.957031 L 8.003906 -12.957031 Z M 8.003906 -10.671875 "/></g></g></g><g fill="#070a0e" fill-opacity="1"><g transform="translate(253.439649, 195.749987)"><g><path d="M 10.671875 -10.671875 L 12.957031 -10.671875 L 12.957031 -12.957031 L 10.671875 -12.957031 Z M 0 0 L 2.285156 0 L 2.285156 -2.285156 L 0 -2.285156 Z M 2.667969 0 L 4.953125 0 L 4.953125 -2.285156 L 2.667969 -2.285156 Z M 0 -5.335938 L 2.285156 -5.335938 L 2.285156 -7.621094 L 0 -7.621094 Z M 5.335938 0 L 7.621094 0 L 7.621094 -2.285156 L 5.335938 -2.285156 Z M 0 -8.003906 L 2.285156 -8.003906 L 2.285156 -10.289062 L 0 -10.289062 Z M 2.667969 -5.335938 L 4.953125 -5.335938 L 4.953125 -7.621094 L 2.667969 -7.621094 Z M 8.003906 0 L 10.289062 0 L 10.289062 -2.285156 L 8.003906 -2.285156 Z M 2.667969 -8.003906 L 4.953125 -8.003906 L 4.953125 -10.289062 L 2.667969 -10.289062 Z M 5.335938 -5.335938 L 7.621094 -5.335938 L 7.621094 -7.621094 L 5.335938 -7.621094 Z M 8.003906 -2.667969 L 10.289062 -2.667969 L 10.289062 -4.953125 L 8.003906 -4.953125 Z M 2.667969 -10.671875 L 4.953125 -10.671875 L 4.953125 -12.957031 L 2.667969 -12.957031 Z M 8.003906 -5.335938 L 10.289062 -5.335938 L 10.289062 -7.621094 L 8.003906 -7.621094 Z M 10.671875 -2.667969 L 12.957031 -2.667969 L 12.957031 -4.953125 L 10.671875 -4.953125 Z M 5.335938 -10.671875 L 7.621094 -10.671875 L 7.621094 -12.957031 L 5.335938 -12.957031 Z M 10.671875 -5.335938 L 12.957031 -5.335938 L 12.957031 -7.621094 L 10.671875 -7.621094 Z M 8.003906 -10.671875 L 10.289062 -10.671875 L 10.289062 -12.957031 L 8.003906 -12.957031 Z M 8.003906 -10.671875 "/></g></g></g><g fill="#070a0e" fill-opacity="1"><g transform="translate(269.059734, 195.749987)"><g><path d="M 13.335938 -8.003906 L 15.625 -8.003906 L 15.625 -10.289062 L 13.335938 -10.289062 Z M 0 -2.667969 L 2.285156 -2.667969 L 2.285156 -4.953125 L 0 -4.953125 Z M 2.667969 0 L 4.953125 0 L 4.953125 -2.285156 L 2.667969 -2.285156 Z M 0 -5.335938 L 2.285156 -5.335938 L 2.285156 -7.621094 L 0 -7.621094 Z M 2.667969 -2.667969 L 4.953125 -2.667969 L 4.953125 -4.953125 L 2.667969 -4.953125 Z M 5.335938 0 L 7.621094 0 L 7.621094 -2.285156 L 5.335938 -2.285156 Z M 0 -8.003906 L 2.285156 -8.003906 L 2.285156 -10.289062 L 0 -10.289062 Z M 2.667969 -5.335938 L 4.953125 -5.335938 L 4.953125 -7.621094 L 2.667969 -7.621094 Z M 8.003906 0 L 10.289062 0 L 10.289062 -2.285156 L 8.003906 -2.285156 Z M 2.667969 -8.003906 L 4.953125 -8.003906 L 4.953125 -10.289062 L 2.667969 -10.289062 Z M 10.671875 0 L 12.957031 0 L 12.957031 -2.285156 L 10.671875 -2.285156 Z M 2.667969 -10.671875 L 4.953125 -10.671875 L 4.953125 -12.957031 L 2.667969 -12.957031 Z M 10.671875 -2.667969 L 12.957031 -2.667969 L 12.957031 -4.953125 L 10.671875 -4.953125 Z M 5.335938 -10.671875 L 7.621094 -10.671875 L 7.621094 -12.957031 L 5.335938 -12.957031 Z M 10.671875 -5.335938 L 12.957031 -5.335938 L 12.957031 -7.621094 L 10.671875 -7.621094 Z M 13.335938 -2.667969 L 15.625 -2.667969 L 15.625 -4.953125 L 13.335938 -4.953125 Z M 8.003906 -10.671875 L 10.289062 -10.671875 L 10.289062 -12.957031 L 8.003906 -12.957031 Z M 10.671875 -8.003906 L 12.957031 -8.003906 L 12.957031 -10.289062 L 10.671875 -10.289062 Z M 13.335938 -5.335938 L 15.625 -5.335938 L 15.625 -7.621094 L 13.335938 -7.621094 Z M 10.671875 -10.671875 L 12.957031 -10.671875 L 12.957031 -12.957031 L 10.671875 -12.957031 Z M 10.671875 -10.671875 "/></g></g></g></svg>